<?xml version="1.0" standalone="no"?>
<!DOCTYPE svg PUBLIC "-//W3C//DTD SVG 20010904//EN"
 "http://www.w3.org/TR/2001/REC-SVG-20010904/DTD/svg10.dtd">
<svg version="1.0" xmlns="http://www.w3.org/2000/svg"
 width="129.000000pt" height="129.000000pt" viewBox="0 0 129.000000 129.000000"
 preserveAspectRatio="xMidYMid meet">
<metadata>
Created by potrace 1.11, written by Peter Selinger 2001-2013
</metadata>
<g transform="translate(0.000000,129.000000) scale(0.100000,-0.100000)"
fill="#000000" stroke="none">
<path d="M933 979 c-109 -54 -136 -205 -51 -289 16 -17 83 -57 149 -91 128
-65 149 -87 149 -151 0 -66 -57 -108 -147 -108 -88 0 -169 61 -188 143 -5 18
-14 27 -27 27 -18 0 -20 -4 -14 -37 3 -21 6 -66 6 -100 0 -49 3 -63 15 -63 8
0 19 9 25 20 11 20 12 20 58 -7 41 -25 57 -28 132 -28 72 0 92 4 129 25 24 14
58 42 75 63 25 31 31 49 34 100 5 101 -38 148 -214 233 -108 51 -144 88 -144
144 0 56 43 90 113 90 71 0 112 -27 140 -90 15 -34 28 -50 41 -50 17 0 18 6
12 87 -4 48 -10 90 -13 93 -2 3 -12 -4 -22 -16 l-16 -20 -44 23 c-58 30 -139
31 -198 2z"/>
<path d="M215 693 c-65 -164 -125 -308 -133 -321 -8 -12 -28 -26 -46 -30 -17
-5 -32 -16 -34 -25 -3 -15 9 -17 107 -17 104 0 111 1 111 20 0 15 -7 20 -25
20 -45 0 -49 30 -18 123 l28 82 122 3 121 3 22 -58 c48 -125 46 -149 -12 -155
-22 -2 -34 -9 -36 -20 -3 -17 9 -18 148 -18 134 0 151 2 148 16 -2 9 -19 22
-38 28 -46 15 -57 37 -191 369 -98 245 -114 277 -133 277 -20 0 -36 -34 -141
-297z m168 32 l45 -120 -49 -3 c-27 -2 -71 -2 -98 0 l-48 3 32 85 c47 124 65
164 69 159 3 -2 25 -58 49 -124z"/>
</g>
</svg>
